<svg xmlns="http://www.w3.org/2000/svg" xmlns:xlink="http://www.w3.org/1999/xlink" viewBox="0 0 291.18 47.7"><defs><style>.cls-1{fill:#fff;}.cls-2{fill:url(#名称未設定グラデーション_54);}</style><linearGradient id="名称未設定グラデーション_54" y1="23.85" x2="291.18" y2="23.85" gradientUnits="userSpaceOnUse"><stop offset="0.08" stop-color="#00674a"/><stop offset="0.54" stop-color="#1d8f41"/><stop offset="1" stop-color="#72d777"/></linearGradient></defs><g id="レイヤー_2" data-name="レイヤー 2"><g id="レイヤー_1-2" data-name="レイヤー 1"><path class="cls-1" d="M0,1.32a72,72,0,0,1,12.48-1C18.6.36,23.1,1.38,26.22,4A13.72,13.72,0,0,1,30.9,14.7c0,12.9-10.5,15.9-17.76,15.9-1,0-1.92-.06-2.64-.12V47H0ZM10.5,22.2a23.41,23.41,0,0,0,2.4.12c4.92,0,7.56-2.94,7.56-7.14s-2.58-6.6-6.78-6.6a12.09,12.09,0,0,0-3.18.36Z"/><path class="cls-1" d="M76.26,23.22c0,16.14-7.86,24.48-19.56,24.48-12.78,0-19-11-19-23.76C37.68,10.86,44.88,0,57.36,0,70.86,0,76.26,11.94,76.26,23.22Zm-27.48.54C48.72,32.64,51.72,39,57.06,39s8.1-6.36,8.1-15.42c0-8.1-2.7-14.88-8.1-14.88C51.42,8.7,48.78,15.78,48.78,23.76Z"/><path class="cls-1" d="M108.9,10.8a18,18,0,0,0-8.16-1.92c-4.08,0-6.06,2-6.06,4.26,0,2.58,1.92,3.84,7.56,6.42,7.38,3.3,10.44,7.86,10.44,13.62,0,8.46-6.42,14.46-17.64,14.46-4.68,0-9.3-1.2-11.46-2.4l1.8-8.88a23.76,23.76,0,0,0,10.08,2.4c4.44,0,6.6-1.92,6.6-4.68s-2.1-4.38-6.9-6.54c-7.32-3.36-11.1-7.92-11.1-13.44,0-7.86,6-14,16.74-14a23.33,23.33,0,0,1,10.08,2Z"/><path class="cls-1" d="M121.86.66h10.56V47H121.86Z"/><path class="cls-1" d="M189.12,47h-10l-.66-16.56c-.24-4.92-.48-11.1-.42-17.22h-.18c-1.2,5.58-2.82,11.88-4.08,16.32L169.26,46.2h-8l-4.14-16.5C156,25.26,154.68,19,153.72,13.26h-.18c-.18,5.76-.48,12.3-.72,17.28L152,47h-9.48L145.74.66h12.9l3.72,15c1.32,5.52,2.64,11.16,3.54,16.62h.24c1-5.34,2.28-11.28,3.66-16.68l4-14.94h12.72Z"/><path class="cls-1" d="M225.72,47H199.38V.66h25.44V9.48H209.94v9.3H224v8.64h-14.1v10.8h15.78Z"/><path class="cls-1" d="M235.44,1.32a75.94,75.94,0,0,1,12.18-1c7.68,0,12.72,1.5,16.62,4.56,4.5,3.66,7.08,9.54,7.08,18.06,0,9.9-3.42,16-7.26,19.26-4.14,3.54-10.44,5.22-18.48,5.22a74.88,74.88,0,0,1-10.14-.66Zm10.5,37.62a16.5,16.5,0,0,0,2.52.12c6.9.06,11.82-4.56,11.82-16,0-9.66-4.44-14.46-11.1-14.46a13.67,13.67,0,0,0-3.24.3Z"/><path class="cls-1" d="M280.62.66h10.56V47H280.62Z"/><path class="cls-2" d="M0,1.32a72,72,0,0,1,12.48-1C18.6.36,23.1,1.38,26.22,4A13.72,13.72,0,0,1,30.9,14.7c0,12.9-10.5,15.9-17.76,15.9-1,0-1.92-.06-2.64-.12V47H0ZM10.5,22.2a23.41,23.41,0,0,0,2.4.12c4.92,0,7.56-2.94,7.56-7.14s-2.58-6.6-6.78-6.6a12.09,12.09,0,0,0-3.18.36Z"/><path class="cls-2" d="M76.26,23.22c0,16.14-7.86,24.48-19.56,24.48-12.78,0-19-11-19-23.76C37.68,10.86,44.88,0,57.36,0,70.86,0,76.26,11.94,76.26,23.22Zm-27.48.54C48.72,32.64,51.72,39,57.06,39s8.1-6.36,8.1-15.42c0-8.1-2.7-14.88-8.1-14.88C51.42,8.7,48.78,15.78,48.78,23.76Z"/><path class="cls-2" d="M108.9,10.8a18,18,0,0,0-8.16-1.92c-4.08,0-6.06,2-6.06,4.26,0,2.58,1.92,3.84,7.56,6.42,7.38,3.3,10.44,7.86,10.44,13.62,0,8.46-6.42,14.46-17.64,14.46-4.68,0-9.3-1.2-11.46-2.4l1.8-8.88a23.76,23.76,0,0,0,10.08,2.4c4.44,0,6.6-1.92,6.6-4.68s-2.1-4.38-6.9-6.54c-7.32-3.36-11.1-7.92-11.1-13.44,0-7.86,6-14,16.74-14a23.33,23.33,0,0,1,10.08,2Z"/><path class="cls-2" d="M121.86.66h10.56V47H121.86Z"/><path class="cls-2" d="M189.12,47h-10l-.66-16.56c-.24-4.92-.48-11.1-.42-17.22h-.18c-1.2,5.58-2.82,11.88-4.08,16.32L169.26,46.2h-8l-4.14-16.5C156,25.26,154.68,19,153.72,13.26h-.18c-.18,5.76-.48,12.3-.72,17.28L152,47h-9.48L145.74.66h12.9l3.72,15c1.32,5.52,2.64,11.16,3.54,16.62h.24c1-5.34,2.28-11.28,3.66-16.68l4-14.94h12.72Z"/><path class="cls-2" d="M225.72,47H199.38V.66h25.44V9.48H209.94v9.3H224v8.64h-14.1v10.8h15.78Z"/><path class="cls-2" d="M235.44,1.32a75.94,75.94,0,0,1,12.18-1c7.68,0,12.72,1.5,16.62,4.56,4.5,3.66,7.08,9.54,7.08,18.06,0,9.9-3.42,16-7.26,19.26-4.14,3.54-10.44,5.22-18.48,5.22a74.88,74.88,0,0,1-10.14-.66Zm10.5,37.62a16.5,16.5,0,0,0,2.52.12c6.9.06,11.82-4.56,11.82-16,0-9.66-4.44-14.46-11.1-14.46a13.67,13.67,0,0,0-3.24.3Z"/><path class="cls-2" d="M280.62.66h10.56V47H280.62Z"/></g></g></svg>